<svg width="432" height="124" viewBox="0 0 432 124" fill="none" xmlns="http://www.w3.org/2000/svg">
<path d="M153.002 109.164H145.365V117.36H153.002V109.164Z" fill="#F8F8F8"/>
<path d="M160.51 115.756H152.872V123.952H160.51V115.756Z" fill="#F8F8F8"/>
<path d="M171.981 115.756H160.379V123.815H171.981V115.756Z" fill="#F8F8F8"/>
<path d="M179.456 108.566H171.818V116.763H179.456V108.566Z" fill="#F8F8F8"/>
<path d="M187.093 100.371H179.456V108.568H187.093V100.371Z" fill="#F8F8F8"/>
<path d="M193.23 108.432H186.995V85.7207H417.668V93.7551H193.23V108.432Z" fill="#F8F8F8"/>
<path d="M160.379 110.217H152.742V93.8242H15.275V85.6278H7.63748V77.4313H0V20.0605H7.63748V77.4313H15.275V85.6278H160.379V110.217Z" fill="#F8F8F8"/>
<path d="M425.306 77.4316H417.668V85.6281H425.306V77.4316Z" fill="#F8F8F8"/>
<path d="M432 77.6612H425.164V20.1119H418.328V11.8899H15.0142V3.66797H418.328V11.8899H425.164V20.1119H432V77.6612Z" fill="#F8F8F8"/>
<path d="M15.2747 11.8652H7.63721V20.0617H15.2747V11.8652Z" fill="#F8F8F8"/>
<path d="M55.7737 68.4668V60.4668H47.7737V28.4668H55.7737V60.4668H71.7737V68.4668H55.7737ZM71.7737 60.4668V28.4668H79.7737V60.4668H71.7737ZM84.2537 68.4668V28.4668H92.2537V36.4668H100.254V44.4668H108.254V52.4668H116.254V28.4668H124.254V68.4668H116.254V60.4668H108.254V52.4668H100.254V44.4668H92.2537V68.4668H84.2537ZM128.734 68.4668V28.4668H152.734V36.4668H136.734V44.4668H152.734V52.4668H136.734V60.4668H152.734V68.4668H128.734ZM189.214 68.4668V60.4668H181.214V52.4668H173.214V44.4668H165.214V36.4668H157.214V28.4668H165.214V36.4668H173.214V44.4668H181.214V52.4668H189.214V60.4668H197.214V68.4668H189.214ZM181.214 44.4668V36.4668H189.214V28.4668H197.214V36.4668H189.214V44.4668H181.214ZM165.214 60.4668V52.4668H173.214V60.4668H165.214ZM157.214 68.4668V60.4668H165.214V68.4668H157.214ZM201.694 68.4668V28.4668H225.694V36.4668H233.694V44.4668H225.694V52.4668H209.694V68.4668H201.694ZM209.694 44.4668H225.374V36.4668H209.694V44.4668ZM238.174 68.4668V28.4668H262.174V36.4668H246.174V44.4668H262.174V52.4668H246.174V60.4668H262.174V68.4668H238.174ZM290.654 44.4668V36.4668H274.654V28.4668H290.654V36.4668H298.654V44.4668H290.654ZM274.654 68.4668V60.4668H266.654V36.4668H274.654V60.4668H290.654V68.4668H274.654ZM290.654 60.4668V52.4668H298.654V60.4668H290.654ZM311.134 68.4668V36.4668H303.134V28.4668H327.134V36.4668H319.134V68.4668H311.134ZM331.614 68.4668V28.4668H355.614V36.4668H339.614V44.4668H355.614V52.4668H339.614V60.4668H355.614V68.4668H331.614ZM360.094 68.4668V28.4668H384.094V36.4668H392.094V60.4668H384.094V68.4668H360.094ZM368.094 60.4668H383.774V36.4668H368.094V60.4668Z" fill="white"/>
</svg>
