<svg width="119" height="34" viewBox="0 0 119 34" fill="none" xmlns="http://www.w3.org/2000/svg">
<g clip-path="url(#clip0_87_3988)">
<path d="M109.659 0H9.3406C4.18193 0 0 4.17145 0 9.31719V24.6828C0 29.8286 4.18193 34 9.3406 34H109.659C114.818 34 119 29.8286 119 24.6828V9.31719C119 4.17145 114.818 0 109.659 0Z" fill="white"/>
<path d="M13.4526 27.0366V9.73633H28.1213V12.4046H30.7943V19.0356H28.1213V21.7019H22.7733V27.0366H13.4526Z" fill="black"/>
<path d="M13.4526 27.0366V9.73633H28.1213V12.4046H30.7943V19.0356H28.1213V21.7019H22.7733V27.0366H13.4526Z" fill="black" fill-opacity="0.2"/>
<path d="M39.3495 9.73633H30.0288V27.0366H39.3495V9.73633Z" fill="black"/>
<path d="M39.3495 9.73633H30.0288V27.0366H39.3495V9.73633Z" fill="black" fill-opacity="0.2"/>
<path d="M41.2594 27.0366V24.3703H38.5864V12.4046H41.2594V9.73633H53.2551V12.4046H55.9281V24.3703H53.2551V27.0366H41.2594Z" fill="black"/>
<path d="M41.2594 27.0366V24.3703H38.5864V12.4046H41.2594V9.73633H53.2551V12.4046H55.9281V24.3703H53.2551V27.0366H41.2594Z" fill="black" fill-opacity="0.2"/>
<path d="M55.1646 27.0366V9.73633H69.8332V12.4046H72.5063V24.3703H69.8332V27.0366H55.1646Z" fill="black"/>
<path d="M55.1646 27.0366V9.73633H69.8332V12.4046H72.5063V24.3703H69.8332V27.0366H55.1646Z" fill="black" fill-opacity="0.2"/>
<path d="M74.4157 27.0366V24.3703H71.7407V12.4046H74.4157V9.73633H86.4114V12.4046H89.0844V24.3703H86.4114V27.0366H74.4157Z" fill="black"/>
<path d="M74.4157 27.0366V24.3703H71.7407V12.4046H74.4157V9.73633H86.4114V12.4046H89.0844V24.3703H86.4114V27.0366H74.4157Z" fill="black" fill-opacity="0.2"/>
<path d="M93.6669 27.0366V19.0356H90.9939V16.3673H88.3188V9.73633H97.6395V12.4046H99.0149V9.73633H108.336V16.3673H105.663V19.0356H102.988V27.0366H93.6669Z" fill="black"/>
<path d="M93.6669 27.0366V19.0356H90.9939V16.3673H88.3188V9.73633H97.6395V12.4046H99.0149V9.73633H108.336V16.3673H105.663V19.0356H102.988V27.0366H93.6669Z" fill="black" fill-opacity="0.2"/>
<path d="M10.6641 24.2631V6.96289H25.3328V9.62921H28.0058V16.2602H25.3328V18.9285H19.9847V24.2631H10.6641Z" fill="black"/>
<path d="M10.6641 24.2631V6.96289H25.3328V9.62921H28.0058V16.2602H25.3328V18.9285H19.9847V24.2631H10.6641Z" fill="black" fill-opacity="0.2"/>
<path d="M12.6514 22.2809V8.94531H23.3474V11.6116H26.0204V14.2779H23.3474V16.9443H17.9994V22.2789H12.6514V22.2809ZM17.9994 14.2799H20.5668V11.6136H17.9994V14.2799Z" fill="white"/>
<path d="M36.5629 6.96289H27.2422V24.2631H36.5629V6.96289Z" fill="black"/>
<path d="M36.5629 6.96289H27.2422V24.2631H36.5629V6.96289Z" fill="black" fill-opacity="0.2"/>
<path d="M29.2275 22.2809V8.94531H34.5756V22.2809H29.2275Z" fill="white"/>
<path d="M38.4724 24.2631V21.5948H35.7974V9.62921H38.4724V6.96289H50.4661V9.62921H53.1411V21.5948H50.4661V24.2631H38.4724Z" fill="black"/>
<path d="M38.4724 24.2631V21.5948H35.7974V9.62921H38.4724V6.96289H50.4661V9.62921H53.1411V21.5948H50.4661V24.2631H38.4724Z" fill="black" fill-opacity="0.2"/>
<path d="M40.4577 22.2809V19.6146H37.7847V11.6116H40.4577V8.94531H48.4787V11.6116H51.1517V14.2779H45.8037V11.6116H43.1307V19.6126H45.8037V16.9443H51.1517V19.6126H48.4787V22.2789H40.4577V22.2809Z" fill="white"/>
<path d="M52.376 24.2631V6.96289H67.0447V9.62921H69.7177V21.5948H67.0447V24.2631H52.376Z" fill="black"/>
<path d="M52.376 24.2631V6.96289H67.0447V9.62921H69.7177V21.5948H67.0447V24.2631H52.376Z" fill="black" fill-opacity="0.2"/>
<path d="M54.3633 22.2809V8.94531H65.0593V11.6116H67.7323V19.6126H65.0593V22.2789H54.3633V22.2809ZM59.7113 14.2799H62.2787V11.6136H59.7113V14.2799ZM59.7113 19.6146H62.2787V16.9462H59.7113V19.6146Z" fill="white"/>
<path d="M71.6271 24.2631V21.5948H68.9541V9.62921H71.6271V6.96289H83.6228V9.62921H86.2958V21.5948H83.6228V24.2631H71.6271Z" fill="black"/>
<path d="M71.6271 24.2631V21.5948H68.9541V9.62921H71.6271V6.96289H83.6228V9.62921H86.2958V21.5948H83.6228V24.2631H71.6271Z" fill="black" fill-opacity="0.2"/>
<path d="M73.6144 22.2809V19.6146H70.9414V11.6116H73.6144V8.94531H81.6355V11.6116H84.3085V19.6126H81.6355V22.2789H73.6144V22.2809ZM76.2874 19.5072H78.9605V11.719H76.2874V19.5072Z" fill="white"/>
<path d="M90.8783 24.2631V16.2602H88.2053V13.5939H85.5303V6.96289H94.8529V9.62921H96.2263V6.96289H105.547V13.5939H102.874V16.2602H100.199V24.2631H90.8783Z" fill="black"/>
<path d="M90.8783 24.2631V16.2602H88.2053V13.5939H85.5303V6.96289H94.8529V9.62921H96.2263V6.96289H105.547V13.5939H102.874V16.2602H100.199V24.2631H90.8783Z" fill="black" fill-opacity="0.2"/>
<path d="M92.6053 22.1734V14.1725H89.9323V11.5062H87.2593V8.83984H92.6073V11.5062H97.9553V8.83984H103.303V11.5062H100.63V14.1725H97.9573V22.1734H92.6093H92.6053Z" fill="white"/>
</g>
<defs>
<clipPath id="clip0_87_3988">
<rect width="119" height="34" fill="white"/>
</clipPath>
</defs>
</svg>
